<?xml version="1.0" standalone="no"?>
<!DOCTYPE svg PUBLIC "-//W3C//DTD SVG 20010904//EN"
 "http://www.w3.org/TR/2001/REC-SVG-20010904/DTD/svg10.dtd">
<svg version="1.0" xmlns="http://www.w3.org/2000/svg"
 width="512.000000pt" height="512.000000pt" viewBox="0 0 512.000000 512.000000"
 preserveAspectRatio="xMidYMid meet">
<metadata>
Created by potrace 1.14, written by Peter Selinger 2001-2017
</metadata>
<g transform="translate(0.000000,512.000000) scale(0.100000,-0.100000)"
fill="#000000" stroke="none">
<path d="M2310 5109 c-502 -55 -974 -249 -1355 -556 -129 -104 -340 -321 -433
-445 -265 -354 -434 -758 -498 -1193 -22 -147 -29 -428 -15 -575 42 -433 180
-833 405 -1174 414 -629 1047 -1032 1791 -1142 147 -22 428 -29 575 -15 433
42 833 180 1174 405 629 414 1032 1047 1142 1791 22 147 29 428 15 575 -51
524 -238 988 -558 1385 -104 129 -321 340 -445 433 -354 265 -755 432 -1193
498 -121 18 -487 26 -605 13z m-520 -1749 l0 -120 -325 0 -325 0 0 -470 0
-470 213 2 212 3 3 158 3 157 -96 0 -95 0 0 110 0 110 218 -2 217 -3 0 -280 0
-280 -30 -60 c-36 -73 -95 -116 -180 -133 -88 -18 -457 -16 -529 3 -117 31
-176 97 -196 221 -13 80 -13 852 0 933 20 122 76 188 184 215 88 23 91 23 424
25 l302 1 0 -120z m459 60 c16 -23 152 -228 303 -457 l273 -416 3 457 2 456
110 0 110 0 0 -660 c0 -653 0 -659 20 -670 18 -10 170 -162 256 -255 23 -26
179 -190 434 -458 41 -43 79 -90 84 -103 22 -65 -25 -134 -91 -134 -30 0 -46
11 -112 75 l-77 75 -995 0 -995 0 -69 -70 c-62 -62 -74 -70 -108 -70 -53 0
-87 35 -87 91 0 38 6 48 78 123 42 44 116 121 163 171 47 49 132 140 190 200
58 61 151 158 207 217 l102 108 0 680 0 680 85 0 85 0 29 -40z m1817 25 c62
-18 111 -54 146 -107 45 -67 53 -108 53 -298 0 -211 -12 -257 -84 -329 -25
-26 -56 -54 -69 -62 l-23 -14 31 -42 c20 -27 60 -123 111 -267 43 -123 79
-227 79 -230 0 -3 -57 -6 -128 -6 l-127 0 -79 238 c-43 130 -85 247 -92 260
-14 21 -20 22 -154 22 l-140 0 0 -260 0 -260 -130 0 -130 0 0 678 c0 373 3
682 7 685 3 4 158 7 343 7 267 0 347 -3 386 -15z"/>
<path d="M2270 2537 l0 -447 -30 0 c-28 0 -30 -2 -30 -39 0 -30 -8 -49 -36
-83 l-37 -43 428 -3 c236 -1 430 0 433 3 3 2 -10 21 -28 41 -28 33 -32 43 -27
80 l4 43 -41 3 -40 3 -284 430 c-155 237 -289 437 -297 445 -13 12 -15 -42
-15 -433z"/>
<path d="M2024 1808 c-33 -35 -65 -70 -71 -78 -10 -13 60 -15 618 -15 346 0
629 1 629 3 0 2 -32 37 -72 78 l-71 74 -486 0 -487 0 -60 -62z"/>
<path d="M1770 1540 l-92 -100 893 0 893 0 -44 48 c-25 26 -67 71 -95 100
l-49 52 -707 0 -707 0 -92 -100z"/>
<path d="M3590 3035 l0 -205 203 2 202 3 3 203 2 202 -205 0 -205 0 0 -205z"/>
</g>
</svg>
